<svg width="65" height="69" viewBox="0 0 65 60" fill="none" xmlns="http://www.w3.org/2000/svg">
    <g filter="url(#filter0_d_889_4313)">
        <path
            d="M7.4041 13.2791L29.8627 1.24811C31.3204 0.467233 33.0699 0.457594 34.5361 1.22236L57.6737 13.2909C59.3256 14.1525 60.3614 15.861 60.3614 17.7241V41.9334C60.3614 43.7253 59.4025 45.3802 57.8478 46.2713L34.7125 59.5321C33.1545 60.4252 31.2372 60.4141 29.6896 59.5031L7.22862 46.2808C5.70223 45.3822 4.76514 43.7432 4.76514 41.972V17.6865C4.76514 15.8433 5.77928 14.1495 7.4041 13.2791Z"
            fill="#FFA427" />
    </g>
    <path
        d="M41.9008 19.2678C41.9008 18.3547 41.1506 17.615 40.226 17.615H26.1855V21.9266H24.5836C23.6584 21.9266 22.9087 22.6664 22.9087 23.5794V37.9588C22.9077 37.9882 22.9014 38.0148 22.9014 38.0441C22.9014 39.086 23.5845 39.8421 24.5256 39.8421H24.547V41.7313C24.5459 41.7602 24.5397 41.7872 24.5397 41.817C24.5397 42.859 25.2229 43.615 26.1639 43.615H40.2618V43.3049V42.9948H26.1643C25.476 42.9948 25.1681 42.4035 25.1681 41.8169C25.1681 41.7904 25.1721 41.7638 25.1736 41.7378C25.2007 41.1787 25.5074 40.6396 26.1643 40.6396H40.2628V40.33V40.019V35.5058H40.2835C41.2262 35.5058 41.8839 34.7768 41.8839 33.732C41.8839 33.7044 41.8783 33.6798 41.8773 33.6529H41.9014V19.2678H41.9008ZM38.6237 37.9639V39.2219H24.5469H24.5255C23.8371 39.2219 23.5293 38.6307 23.5293 38.044C23.5293 38.0174 23.5332 37.9909 23.5347 37.9639C23.5618 37.4053 23.8685 36.8666 24.525 36.8666H24.5465H38.6237V37.9639ZM40.2835 34.9341H40.2618H38.6237H26.1855V33.6528V32.5308H38.6237H40.2627H40.2834C40.9571 32.5308 41.2713 33.082 41.2988 33.6528C41.3002 33.6788 41.304 33.7054 41.304 33.7319C41.304 34.3307 40.9883 34.9341 40.2835 34.9341Z"
        fill="white" />
    <defs>
        <filter id="filter0_d_889_4313" x="0.765137" y="0.655518" width="63.5962" height="67.5387"
            filterUnits="userSpaceOnUse" color-interpolation-filters="sRGB">
            <feFlood flood-opacity="0" result="BackgroundImageFix" />
            <feColorMatrix in="SourceAlpha" type="matrix"
                values="0 0 0 0 0 0 0 0 0 0 0 0 0 0 0 0 0 0 127 0" result="hardAlpha" />
            <feOffset dy="4" />
            <feGaussianBlur stdDeviation="2" />
            <feComposite in2="hardAlpha" operator="out" />
            <feColorMatrix type="matrix" values="0 0 0 0 0 0 0 0 0 0 0 0 0 0 0 0 0 0 0.25 0" />
            <feBlend mode="normal" in2="BackgroundImageFix" result="effect1_dropShadow_889_4313" />
            <feBlend mode="normal" in="SourceGraphic" in2="effect1_dropShadow_889_4313"
                result="shape" />
        </filter>
    </defs>
</svg>
