<svg width="64" height="69" viewBox="0 0 64 62" fill="none" xmlns="http://www.w3.org/2000/svg">
    <g filter="url(#filter0_d_889_4311)">
        <path
            d="M6.63896 13.2791L29.0976 1.24811C30.5553 0.467233 32.3048 0.457594 33.771 1.22236L56.9086 13.2909C58.5604 14.1525 59.5962 15.861 59.5962 17.7241V41.9334C59.5962 43.7253 58.6373 45.3802 57.0827 46.2713L33.9474 59.5321C32.3894 60.4252 30.4721 60.4141 28.9245 59.5031L6.46349 46.2808C4.93709 45.3822 4 43.7432 4 41.972V17.6865C4 15.8433 5.01415 14.1495 6.63896 13.2791Z"
            fill="#6CAE75" />
    </g>
    <path
        d="M46.0664 33.9066V27.0934C47.1701 26.8559 48 25.8728 48 24.6992C48 22.7603 45.8475 21.6015 44.2343 22.6341L39.3659 17.7657C40.3986 16.1523 39.2395 14 37.3008 14C35.7808 14 34.615 15.381 34.8922 16.892L29.2259 19.2467L27.7569 17.7776C28.7959 16.1756 27.6541 14 25.6992 14C23.7629 14 22.5999 16.1499 23.6341 17.7657L18.7657 22.6341C17.1521 21.6013 15 22.7609 15 24.6992C15 26.2222 16.3836 27.3843 17.892 27.1078L19.3017 30.5L17.892 33.8922C16.3781 33.6144 15 34.7837 15 36.3008C15 38.2397 17.1525 39.3985 18.7657 38.3659L23.6341 43.2343C22.6013 44.8479 23.7609 47 25.6992 47C26.8728 47 27.8558 46.1701 28.0933 45.0664H34.9066C35.1441 46.1701 36.1272 47 37.3007 47C38.6512 47 39.7499 45.9013 39.7499 44.5508C39.7499 43.2003 38.6512 42.1016 37.3007 42.1016C36.1271 42.1016 35.1441 42.9315 34.9066 44.0352H28.2831L43.5382 37.6959C44.8909 39.6538 48 38.7017 48 36.3008C48 35.1272 47.1701 34.1442 46.0664 33.9066ZM19.8588 35.8637L21.2858 35.2746L24.2386 42.3803L19.4994 37.6411C19.8464 37.1132 19.9699 36.478 19.8588 35.8637ZM33.3027 24.7819L31.1051 30.1052L21.8433 33.9288L20.4184 30.5L23.6717 22.6713L28.9843 20.4634L33.3027 24.7819ZM38.2503 28.2711L41.1567 27.0712L44.0764 34.0971L38.2503 28.2711ZM42.11 26.6777L43.5346 26.0895C43.8881 26.6043 44.4241 26.9628 45.0352 27.0933V33.7169L42.11 26.6777ZM43.1412 25.1363L41.7142 25.7254L38.7614 18.6197L43.5006 23.3589C43.1536 23.8868 43.0301 24.522 43.1412 25.1363ZM36.864 18.8588C37.1485 18.9103 37.4407 18.9133 37.7436 18.8578L40.7609 26.1189L37.4606 27.4814L34.5187 24.5394L36.864 18.8588ZM36.4283 27.9076L32.45 29.55L34.0924 25.5717L36.4283 27.9076ZM30.5498 31.4501L26.1363 42.1413C25.8424 42.0882 25.5505 42.0884 25.2564 42.1423L22.239 34.8811L30.5498 31.4501ZM27.711 43.1561C27.5426 42.9143 27.3314 42.7036 27.0891 42.5357L31.8948 30.8949L37.218 28.6973L43.4932 34.9725C43.1473 35.5057 43.0314 36.1393 43.1424 36.7438L27.711 43.1561ZM35.2889 17.8439C35.4573 18.0857 35.6686 18.2966 35.9111 18.4644L33.7289 23.7496L30.0145 20.0353L35.2889 17.8439ZM24.2325 21.3217L25.2564 18.8577C25.8621 18.9689 26.4955 18.852 27.0276 18.5068L28.1956 19.6748L24.2325 21.3217ZM19.6197 23.2386L24.2386 18.6197L22.8827 21.8827L19.6197 23.2386ZM18.8443 26.712C19.6326 26.1674 20.0329 25.2112 19.8578 24.2564L22.3218 23.2324L19.8601 29.1563L18.8443 26.712ZM20.89 34.3223L19.4643 34.9109C19.2964 34.6686 19.0857 34.4573 18.8439 34.2889L19.8601 31.8437L20.89 34.3223Z"
        fill="white" />
    <defs>
        <filter id="filter0_d_889_4311" x="0" y="0.655518" width="63.5962" height="67.5387"
            filterUnits="userSpaceOnUse" color-interpolation-filters="sRGB">
            <feFlood flood-opacity="0" result="BackgroundImageFix" />
            <feColorMatrix in="SourceAlpha" type="matrix"
                values="0 0 0 0 0 0 0 0 0 0 0 0 0 0 0 0 0 0 127 0" result="hardAlpha" />
            <feOffset dy="4" />
            <feGaussianBlur stdDeviation="2" />
            <feComposite in2="hardAlpha" operator="out" />
            <feColorMatrix type="matrix" values="0 0 0 0 0 0 0 0 0 0 0 0 0 0 0 0 0 0 0.25 0" />
            <feBlend mode="normal" in2="BackgroundImageFix" result="effect1_dropShadow_889_4311" />
            <feBlend mode="normal" in="SourceGraphic" in2="effect1_dropShadow_889_4311"
                result="shape" />
        </filter>
    </defs>
</svg>
