<svg width="83" height="6" viewBox="0 0 83 6" fill="none" xmlns="http://www.w3.org/2000/svg">
    <path d="M0.333333 3C0.333333 4.47276 1.52724 5.66667 3 5.66667C4.47276 5.66667 5.66667 4.47276 5.66667 3C5.66667 1.52724 4.47276 0.333333 3 0.333333C1.52724 0.333333 0.333333 1.52724 0.333333 3ZM77.3333 3C77.3333 4.47276 78.5272 5.66667 80 5.66667C81.4728 5.66667 82.6667 4.47276 82.6667 3C82.6667 1.52724 81.4728 0.333333 80 0.333333C78.5272 0.333333 77.3333 1.52724 77.3333 3ZM3 3.5H80V2.5H3V3.5Z" fill="black"/>
</svg>
