<svg width="17" height="15" viewBox="0 0 17 15" fill="none" xmlns="http://www.w3.org/2000/svg">
    <path d="M4.25 0V4.25H0" fill="#EA4335" />
    <path
        d="M4.25 0V4.25H9.91667V7.17778L14.1667 3.73056V1.41667C14.1667 0.472222 13.6944 0 12.75 0"
        fill="#FFBA00" />
    <path
        d="M4.15625 14.1667V9.91671H9.91736V7.08337L14.1674 10.4362V12.75C14.1674 13.6945 13.6951 14.1667 12.7507 14.1667"
        fill="#00AC47" />
    <path d="M9.91602 7.08333L14.166 3.63611V10.5306" fill="#00832D" />
    <path
        d="M14.166 3.6361L16.1493 2.03054C16.5743 1.69999 16.9993 1.69999 16.9993 2.3611V11.8055C16.9993 12.4667 16.5743 12.4667 16.1493 12.1361L14.166 10.5305"
        fill="#00AC47" />
    <path d="M0 9.82227V12.75C0 13.6945 0.472222 14.1667 1.41667 14.1667H4.25V9.82227"
        fill="#0066DA" />
    <path d="M0 4.25H4.25V9.91667H0" fill="#2684FC" />
</svg>
