<svg width="64" height="69" viewBox="0 0 64 69" fill="none" xmlns="http://www.w3.org/2000/svg">
    <g filter="url(#filter0_d_0_1)">
        <path
            d="M7.17204 13.2722L29.1887 1.28464C30.662 0.482442 32.4395 0.472562 33.9216 1.25833L56.6045 13.2836C58.2399 14.1506 59.2625 15.8502 59.2625 17.7012V41.9569C59.2625 43.7362 58.3169 45.3815 56.7794 46.2772L34.0989 59.4905C32.5253 60.4072 30.5776 60.3959 29.0148 59.4608L6.99579 46.2862C5.48677 45.3833 4.56299 43.7541 4.56299 41.9956V17.6635C4.56299 15.8324 5.56389 14.1478 7.17204 13.2722Z"
            fill="#134B70" />
    </g>
    <path
        d="M46.6318 26.9733C47.1227 27.1802 47.1227 27.5189 46.6318 27.7238L31.894 33.927C31.3162 34.1336 30.6838 34.1336 30.106 33.927L15.3682 27.7258C14.8773 27.5189 14.8773 27.1781 15.3682 26.9733L30.106 20.7701C30.6838 20.5633 31.3162 20.5633 31.894 20.7701L46.6318 26.9733ZM32.653 35.7019L40.8013 32.2737V36.495C40.8013 39.3228 36.4131 41.615 31 41.615C25.5869 41.615 21.2007 39.3228 21.2007 36.495V32.2717L29.347 35.6999C30.4101 36.1105 31.5899 36.1105 32.653 35.6999V35.7019ZM42.7591 39.1037H46.1183V36.8906C46.1261 36.6669 46.0885 36.4439 46.0076 36.2349C45.9267 36.0259 45.8041 35.8352 45.6473 35.6741C45.4905 35.5131 45.3025 35.385 45.0947 35.2976C44.8869 35.2101 44.6634 35.165 44.4377 35.165C44.2119 35.165 43.9884 35.2101 43.7806 35.2976C43.5728 35.385 43.3849 35.5131 43.228 35.6741C43.0712 35.8352 42.9487 36.0259 42.8677 36.2349C42.7868 36.4439 42.7492 36.6669 42.7571 36.8906L42.7591 39.1037ZM44.4366 31.795C44.6609 31.7954 44.8802 31.7298 45.0669 31.6066C45.2535 31.4834 45.3991 31.308 45.4852 31.1027C45.5713 30.8974 45.594 30.6714 45.5505 30.4532C45.507 30.2351 45.3992 30.0347 45.2408 29.8773C45.0824 29.7199 44.8805 29.6127 44.6605 29.5692C44.4406 29.5256 44.2127 29.5478 44.0054 29.6328C43.7982 29.7178 43.6211 29.8618 43.4965 30.0467C43.3719 30.2315 43.3053 30.4489 43.3053 30.6712C43.3053 30.9693 43.4247 31.2551 43.6373 31.4659C43.8498 31.6766 44.1381 31.795 44.4387 31.795H44.4366ZM44.4366 34.6653C44.6608 34.6657 44.88 34.6002 45.0666 34.4771C45.2532 34.3539 45.3988 34.1787 45.485 33.9735C45.5711 33.7683 45.594 33.5424 45.5507 33.3243C45.5073 33.1062 45.3998 32.9058 45.2415 32.7483C45.0833 32.5909 44.8816 32.4835 44.6618 32.4398C44.442 32.396 44.2141 32.4178 44.0069 32.5025C43.7996 32.5872 43.6223 32.7309 43.4975 32.9155C43.3726 33.1001 43.3057 33.3173 43.3053 33.5395C43.3051 33.6873 43.3342 33.8336 43.391 33.9702C43.4479 34.1068 43.5313 34.2309 43.6366 34.3355C43.7418 34.44 43.8669 34.523 44.0045 34.5796C44.1421 34.6362 44.2897 34.6653 44.4387 34.6653H44.4366Z"
        fill="white" />
    <defs>
        <filter id="filter0_d_0_1" x="0.562988" y="0.675903" width="62.6997" height="67.4943"
            filterUnits="userSpaceOnUse" color-interpolation-filters="sRGB">
            <feFlood flood-opacity="0" result="BackgroundImageFix" />
            <feColorMatrix in="SourceAlpha" type="matrix"
                values="0 0 0 0 0 0 0 0 0 0 0 0 0 0 0 0 0 0 127 0" result="hardAlpha" />
            <feOffset dy="4" />
            <feGaussianBlur stdDeviation="2" />
            <feComposite in2="hardAlpha" operator="out" />
            <feColorMatrix type="matrix" values="0 0 0 0 0 0 0 0 0 0 0 0 0 0 0 0 0 0 0.25 0" />
            <feBlend mode="normal" in2="BackgroundImageFix" result="effect1_dropShadow_0_1" />
            <feBlend mode="normal" in="SourceGraphic" in2="effect1_dropShadow_0_1" result="shape" />
        </filter>
    </defs>
</svg>
