<svg width="64" height="69" viewBox="0 0 64 62" fill="none" xmlns="http://www.w3.org/2000/svg">
    <g filter="url(#filter0_d_889_4310)">
        <path
            d="M7.57633 13.2722L29.593 1.28464C31.0663 0.482442 32.8438 0.472562 34.3259 1.25833L57.0088 13.2836C58.6442 14.1506 59.6668 15.8502 59.6668 17.7012V41.9569C59.6668 43.7362 58.7212 45.3815 57.1837 46.2772L34.5032 59.4905C32.9296 60.4072 30.9819 60.3959 29.4191 59.4608L7.40008 46.2862C5.89106 45.3833 4.96729 43.7541 4.96729 41.9956V17.6635C4.96729 15.8324 5.96818 14.1478 7.57633 13.2722Z"
            fill="#EF2B58" />
    </g>
    <path
        d="M30.8508 18H47.2282C47.6364 18 47.9673 18.3309 47.9673 18.7391V30.8765C47.9673 31.2848 47.6364 31.6156 47.2282 31.6156H31.1514L33.0971 30.4076C33.2244 30.3285 33.3396 30.2375 33.4431 30.1375H46.4891V19.4781H31.5899V26.6547C31.3628 26.7026 31.14 26.79 30.9315 26.9196L30.1117 27.4286V18.7391C30.1117 18.3309 30.4426 18 30.8508 18Z"
        fill="white" />
    <path
        d="M35.6844 24.9387C35.9309 24.7444 36.2885 24.7866 36.4829 25.0332C36.6773 25.2797 36.635 25.6372 36.3884 25.8316L33.8804 27.8092C33.8447 27.7315 33.8045 27.6552 33.7583 27.5807C33.595 27.3177 33.3817 27.1048 33.1387 26.946L35.6844 24.9387Z"
        fill="white" />
    <path
        d="M24.195 24.0679C23.0202 24.0679 22.0678 23.1155 22.0678 21.9406C22.0678 20.7658 23.0202 19.8134 24.195 19.8134C25.3699 19.8134 26.3223 20.7658 26.3223 21.9406C26.3223 23.1155 25.3699 24.0679 24.195 24.0679Z"
        fill="white" />
    <path
        d="M19.005 27.1631C19.0117 25.8304 20.1012 24.7462 21.4339 24.7462H22.464C23.474 27.3654 23.1057 26.4104 23.7388 28.0523L23.4721 26.7086C23.4525 26.6098 23.4683 26.5072 23.5168 26.419L23.9349 25.6586L23.5639 24.9838C23.5381 24.937 23.539 24.8802 23.5662 24.8343C23.5933 24.7884 23.6428 24.7602 23.6961 24.7602H24.7133C24.7667 24.7602 24.816 24.7884 24.8432 24.8343C24.8704 24.8802 24.8712 24.9371 24.8455 24.9838L24.4753 25.6572L24.8925 26.4162C24.942 26.5062 24.9575 26.6109 24.9361 26.7114L24.6281 28.0523C24.8048 27.5943 25.8221 25.0658 25.9453 24.7462H26.9552C28.2879 24.7462 29.3775 25.8304 29.3842 27.1631C29.3897 28.2712 29.3851 27.3431 29.3938 29.0823L31.4726 27.7916C31.9541 27.4925 32.587 27.6405 32.886 28.1222C33.185 28.6038 33.037 29.2366 32.5554 29.5356L28.918 31.794C28.2368 32.2171 27.3542 31.7279 27.3502 30.9272C27.3482 30.5255 27.3337 27.6528 27.3313 27.1733C27.3306 27.0548 27.2342 26.9594 27.1158 26.9598C26.9975 26.9602 26.9017 27.0563 26.9017 27.1747C26.9028 32.1208 26.9241 33.5035 26.9241 44.4278C26.9241 45.108 26.3726 45.6595 25.6924 45.6595C25.0121 45.6595 24.4606 45.108 24.4606 44.4278V34.5827H23.9289V44.4278C23.9289 45.108 23.3775 45.6595 22.6972 45.6595C22.0169 45.6595 21.4655 45.108 21.4655 44.4278L21.465 27.1744C21.465 27.0622 21.3742 26.9711 21.2619 26.9708C21.1497 26.9704 21.0583 27.0611 21.0577 27.1734L21.0198 34.714C21.017 35.2791 20.558 35.7353 19.9936 35.7353C19.9918 35.7353 19.9901 35.7353 19.9883 35.7353C19.4215 35.7324 18.9641 35.2705 18.967 34.7037L19.005 27.1631Z"
        fill="white" />
    <defs>
        <filter id="filter0_d_889_4310" x="0.967285" y="0.675903" width="62.6997" height="67.4943"
            filterUnits="userSpaceOnUse" color-interpolation-filters="sRGB">
            <feFlood flood-opacity="0" result="BackgroundImageFix" />
            <feColorMatrix in="SourceAlpha" type="matrix"
                values="0 0 0 0 0 0 0 0 0 0 0 0 0 0 0 0 0 0 127 0" result="hardAlpha" />
            <feOffset dy="4" />
            <feGaussianBlur stdDeviation="2" />
            <feComposite in2="hardAlpha" operator="out" />
            <feColorMatrix type="matrix" values="0 0 0 0 0 0 0 0 0 0 0 0 0 0 0 0 0 0 0.25 0" />
            <feBlend mode="normal" in2="BackgroundImageFix" result="effect1_dropShadow_889_4310" />
            <feBlend mode="normal" in="SourceGraphic" in2="effect1_dropShadow_889_4310"
                result="shape" />
        </filter>
    </defs>
</svg>
