<svg width="63" height="69" viewBox="0 0 63 60" fill="none" xmlns="http://www.w3.org/2000/svg">
    <g filter="url(#filter0_d_889_4312)">
        <path
            d="M6.61843 13.2799L28.7832 1.27297C30.2516 0.477505 32.0203 0.467699 33.4974 1.24684L56.3327 13.2914C57.9732 14.1567 59 15.8591 59 17.7139V41.9667C59 43.7499 58.0502 45.3982 56.5074 46.2925L33.6745 59.527C32.1057 60.4363 30.1676 60.425 28.6095 59.4975L6.44242 46.3017C4.92795 45.4001 4 43.7678 4 42.0053V17.6763C4 15.8413 5.00505 14.1539 6.61843 13.2799Z"
            fill="#1B8BE3" />
    </g>
    <path
        d="M29.1677 40.2249C29.1671 40.8454 29.3319 41.4559 29.6466 41.9999H17.7206C16.9996 41.9983 16.3086 41.726 15.7987 41.2427C15.2889 40.7594 15.0017 40.1044 15 39.4209V35.5535C15.0051 33.8453 15.7232 32.2085 16.9974 31.0006C18.2717 29.7927 19.9984 29.112 21.8004 29.1072H33.5632C33.8123 29.8968 34.2182 30.6339 34.7593 31.279C33.1959 31.5337 31.7776 32.3036 30.7546 33.4528C29.7316 34.602 29.1696 36.0568 29.1677 37.5605V40.2249ZM27.9202 27.1735C26.5459 27.1735 25.2024 26.7872 24.0597 26.0634C22.9171 25.3396 22.0264 24.3109 21.5005 23.1073C20.9746 21.9038 20.837 20.5794 21.1051 19.3017C21.3732 18.0239 22.035 16.8503 23.0068 15.9291C23.9786 15.0079 25.2167 14.3806 26.5646 14.1264C27.9125 13.8723 29.3096 14.0027 30.5793 14.5013C31.849 14.9998 32.9342 15.8441 33.6977 16.9272C34.4612 18.0104 34.8688 19.2839 34.8688 20.5867C34.8688 22.3336 34.1367 24.009 32.8336 25.2442C31.5305 26.4795 29.7631 27.1735 27.9202 27.1735ZM49 40.2249C48.9983 40.6952 48.8005 41.1457 48.4497 41.4782C48.0989 41.8107 47.6237 41.9983 47.1276 41.9999H33.0801C32.584 41.9983 32.1087 41.8107 31.758 41.4782C31.4072 41.1457 31.2094 40.6952 31.2077 40.2249V37.5605C31.2116 36.3848 31.7061 35.2583 32.5831 34.427C33.4601 33.5956 34.6484 33.1269 35.8887 33.1232H44.3168C45.5571 33.1269 46.7454 33.5956 47.6224 34.427C48.4994 35.2583 48.9939 36.3848 48.9979 37.5605L49 40.2249ZM44.888 27.2549C44.888 28.1518 44.6074 29.0286 44.0817 29.7744C43.556 30.5202 42.8088 31.1015 41.9346 31.4447C41.0604 31.788 40.0985 31.8778 39.1705 31.7028C38.2425 31.5278 37.39 31.0959 36.7209 30.4617C36.0519 29.8274 35.5962 29.0193 35.4116 28.1396C35.227 27.2599 35.3218 26.3481 35.6839 25.5194C36.046 24.6907 36.6592 23.9825 37.4459 23.4841C38.2327 22.9858 39.1576 22.7199 40.1038 22.7199C41.3727 22.7199 42.5895 23.1977 43.4867 24.0481C44.3839 24.8986 44.888 26.0521 44.888 27.2549Z"
        fill="white" />
    <defs>
        <filter id="filter0_d_889_4312" x="0" y="0.669312" width="63" height="67.5319"
            filterUnits="userSpaceOnUse" color-interpolation-filters="sRGB">
            <feFlood flood-opacity="0" result="BackgroundImageFix" />
            <feColorMatrix in="SourceAlpha" type="matrix"
                values="0 0 0 0 0 0 0 0 0 0 0 0 0 0 0 0 0 0 127 0" result="hardAlpha" />
            <feOffset dy="4" />
            <feGaussianBlur stdDeviation="2" />
            <feComposite in2="hardAlpha" operator="out" />
            <feColorMatrix type="matrix" values="0 0 0 0 0 0 0 0 0 0 0 0 0 0 0 0 0 0 0.25 0" />
            <feBlend mode="normal" in2="BackgroundImageFix" result="effect1_dropShadow_889_4312" />
            <feBlend mode="normal" in="SourceGraphic" in2="effect1_dropShadow_889_4312"
                result="shape" />
        </filter>
    </defs>
</svg>
